<?xml version="1.0" encoding="UTF-8"?>
<svg xmlns="http://www.w3.org/2000/svg" viewBox="0 0 100 100">
  <circle cx="50" cy="50" r="48" fill="#4CAF50" stroke="#388E3C" stroke-width="2"/>
  <path d="M35,55 C35,35 40,25 50,25 C60,25 65,35 65,55 C65,65 60,70 50,70 C40,70 35,65 35,55 Z" fill="#8BC34A"/>
  <circle cx="40" cy="40" r="8" fill="#000000"/>
  <circle cx="40" cy="40" r="3" fill="#FFFFFF"/>
  <circle cx="60" cy="40" r="8" fill="#000000"/>
  <circle cx="60" cy="40" r="3" fill="#FFFFFF"/>
  <path d="M45,55 C45,55 50,60 55,55" fill="none" stroke="#388E3C" stroke-width="2"/>
  <path d="M35,25 L40,15 L45,25 M55,25 L60,15 L65,25" fill="#8BC34A"/>
</svg>
