<?xml version="1.0" encoding="UTF-8"?>
<svg xmlns="http://www.w3.org/2000/svg" viewBox="0 0 100 100">
  <circle cx="50" cy="50" r="48" fill="#263238" stroke="#37474F" stroke-width="2"/>
  <circle cx="50" cy="40" r="15" fill="#ECEFF1"/>
  <circle cx="50" cy="40" r="10" fill="#CFD8DC"/>
  <path d="M35,40 C35,30 40,25 50,25 C60,25 65,30 65,40 L65,60 C65,70 60,75 50,75 C40,75 35,70 35,60 L35,40 Z" fill="#ECEFF1" stroke="#CFD8DC" stroke-width="2"/>
  <path d="M40,55 L35,65 M60,55 L65,65" fill="none" stroke="#CFD8DC" stroke-width="2"/>
  <circle cx="45" cy="40" r="2" fill="#37474F"/>
  <circle cx="55" cy="40" r="2" fill="#37474F"/>
  <path d="M45,45 C45,45 50,50 55,45" fill="none" stroke="#37474F" stroke-width="1"/>
</svg>
