<?xml version="1.0" encoding="UTF-8"?>
<svg xmlns="http://www.w3.org/2000/svg" viewBox="0 0 100 100">
  <circle cx="50" cy="50" r="48" fill="#F48FB1" stroke="#EC407A" stroke-width="2"/>
  <path d="M35,35 C35,25 45,25 50,35 C55,25 65,25 65,35 C75,40 75,50 65,55 C75,60 75,70 65,75 C65,85 55,85 50,75 C45,85 35,85 35,75 C25,70 25,60 35,55 C25,50 25,40 35,35 Z" fill="#FFFFFF"/>
  <path d="M40,40 C40,35 45,35 50,40 C55,35 60,35 60,40 C65,45 65,50 60,55 C65,60 65,65 60,70 C60,75 55,75 50,70 C45,75 40,75 40,70 C35,65 35,60 40,55 C35,50 35,45 40,40 Z" fill="#F8BBD0"/>
  <circle cx="50" cy="55" r="5" fill="#EC407A"/>
  <path d="M35,45 L30,40 M65,45 L70,40 M35,65 L30,70 M65,65 L70,70" fill="none" stroke="#EC407A" stroke-width="2"/>
</svg>
