<?xml version="1.0" encoding="UTF-8"?>
<svg xmlns="http://www.w3.org/2000/svg" viewBox="0 0 100 100">
  <circle cx="50" cy="50" r="48" fill="#FF5722" stroke="#E64A19" stroke-width="2"/>
  <path d="M30,50 C35,40 45,35 55,40 C65,45 70,55 65,65 C60,75 50,75 40,70 C30,65 25,60 30,50 Z" fill="#FF7043"/>
  <path d="M65,40 L75,30 L80,40 L70,45 Z" fill="#FF7043"/>
  <path d="M35,70 L25,80 L30,70 L35,70 Z M45,70 L55,80 L50,70 L45,70 Z" fill="#FF7043"/>
  <circle cx="40" cy="45" r="3" fill="#FFEB3B"/>
  <circle cx="60" cy="45" r="3" fill="#FFEB3B"/>
  <path d="M45,55 C45,55 50,60 55,55" fill="none" stroke="#E64A19" stroke-width="2"/>
</svg>
