<?xml version="1.0" encoding="UTF-8"?>
<svg xmlns="http://www.w3.org/2000/svg" viewBox="0 0 100 100">
  <circle cx="50" cy="50" r="48" fill="#9E9E9E" stroke="#616161" stroke-width="2"/>
  <path d="M40,30 L60,30 L60,50 L50,60 L40,50 Z" fill="#BDBDBD"/>
  <path d="M45,30 L55,30 L55,40 L50,45 L45,40 Z" fill="#616161"/>
  <path d="M40,50 L40,70 L60,70 L60,50 Z" fill="#BDBDBD"/>
  <path d="M45,60 L55,60 L55,70 L45,70 Z" fill="#616161"/>
  <path d="M35,40 L40,30 L40,50 L35,40 Z M65,40 L60,30 L60,50 L65,40 Z" fill="#BDBDBD"/>
  <path d="M45,75 L45,85 L55,85 L55,75 Z" fill="#BDBDBD"/>
</svg>
