<?xml version="1.0" encoding="UTF-8"?>
<svg xmlns="http://www.w3.org/2000/svg" viewBox="0 0 100 100">
  <circle cx="50" cy="50" r="48" fill="#00BCD4" stroke="#0097A7" stroke-width="2"/>
  <path d="M35,40 C35,30 40,25 50,25 C60,25 65,30 65,40 L65,50 C65,60 60,65 50,65 C40,65 35,60 35,50 L35,40 Z" fill="#B2EBF2"/>
  <path d="M40,65 C40,65 50,85 60,65 C70,45 60,65 50,85 C40,65 30,45 40,65 Z" fill="#4DD0E1"/>
  <circle cx="40" cy="40" r="3" fill="#0097A7"/>
  <circle cx="60" cy="40" r="3" fill="#0097A7"/>
  <path d="M45,50 C45,50 50,55 55,50" fill="none" stroke="#0097A7" stroke-width="2"/>
  <path d="M30,35 L35,30 L40,35 M60,35 L65,30 L70,35" fill="none" stroke="#B2EBF2" stroke-width="2"/>
</svg>
