<?xml version="1.0" encoding="UTF-8"?>
<svg xmlns="http://www.w3.org/2000/svg" viewBox="0 0 100 100">
  <circle cx="50" cy="50" r="48" fill="#795548" stroke="#5D4037" stroke-width="2"/>
  <path d="M30,40 C30,30 40,25 50,25 C60,25 70,30 70,40 L70,50 C70,60 60,70 50,70 C40,70 30,60 30,50 L30,40 Z" fill="#8D6E63"/>
  <path d="M30,35 L70,35 L70,45 L30,45 Z" fill="#000000"/>
  <rect x="45" y="35" width="10" height="10" fill="#FFFFFF"/>
  <path d="M40,55 C40,55 45,60 50,55 C55,60 60,55 60,55" fill="none" stroke="#5D4037" stroke-width="2"/>
  <circle cx="40" cy="50" r="3" fill="#000000"/>
  <rect x="55" y="45" width="10" height="10" fill="#000000"/>
</svg>
