<?xml version="1.0" encoding="UTF-8"?>
<svg xmlns="http://www.w3.org/2000/svg" viewBox="0 0 100 100">
  <circle cx="50" cy="50" r="48" fill="#E91E63" stroke="#C2185B" stroke-width="2"/>
  <path d="M35,40 C35,30 40,25 50,25 C60,25 65,30 65,40 L65,60 C65,70 60,75 50,75 C40,75 35,70 35,60 L35,40 Z" fill="#F8BBD0"/>
  <path d="M40,25 L50,15 L60,25 Z" fill="#FFEB3B"/>
  <circle cx="40" cy="40" r="3" fill="#C2185B"/>
  <circle cx="60" cy="40" r="3" fill="#C2185B"/>
  <path d="M45,50 C45,50 50,55 55,50" fill="none" stroke="#C2185B" stroke-width="2"/>
  <path d="M30,60 L35,70 M70,60 L65,70" fill="none" stroke="#E91E63" stroke-width="2"/>
</svg>
