<?xml version="1.0" encoding="UTF-8" standalone="no"?>
<svg xmlns="http://www.w3.org/2000/svg" width="100" height="100" viewBox="0 0 100 100">
  <!-- Rainbow Badge -->
  <circle cx="50" cy="50" r="45" fill="#a29bfe" stroke="#6c5ce7" stroke-width="3" />
  
  <!-- Rainbow -->
  <path d="M20,60 Q50,20 80,60" stroke="#ff6b6b" stroke-width="5" fill="none" />
  <path d="M25,60 Q50,25 75,60" stroke="#feca57" stroke-width="5" fill="none" />
  <path d="M30,60 Q50,30 70,60" stroke="#1dd1a1" stroke-width="5" fill="none" />
  <path d="M35,60 Q50,35 65,60" stroke="#54a0ff" stroke-width="5" fill="none" />
  <path d="M40,60 Q50,40 60,60" stroke="#5f27cd" stroke-width="5" fill="none" />
  
  <!-- Clouds -->
  <circle cx="20" cy="60" r="8" fill="white" />
  <circle cx="28" cy="60" r="10" fill="white" />
  <circle cx="80" cy="60" r="8" fill="white" />
  <circle cx="72" cy="60" r="10" fill="white" />
  
  <!-- Sun -->
  <circle cx="50" cy="25" r="10" fill="#feca57" />
  <line x1="50" y1="10" x2="50" y2="15" stroke="#feca57" stroke-width="2" />
  <line x1="50" y1="35" x2="50" y2="40" stroke="#feca57" stroke-width="2" />
  <line x1="35" y1="25" x2="40" y2="25" stroke="#feca57" stroke-width="2" />
  <line x1="60" y1="25" x2="65" y2="25" stroke="#feca57" stroke-width="2" />
  <line x1="40" y1="15" x2="43" y2="18" stroke="#feca57" stroke-width="2" />
  <line x1="57" y1="32" x2="60" y2="35" stroke="#feca57" stroke-width="2" />
  <line x1="40" y1="35" x2="43" y2="32" stroke="#feca57" stroke-width="2" />
  <line x1="57" y1="18" x2="60" y2="15" stroke="#feca57" stroke-width="2" />
</svg>
