<?xml version="1.0" encoding="UTF-8"?>
<svg xmlns="http://www.w3.org/2000/svg" viewBox="0 0 100 100">
  <circle cx="50" cy="50" r="48" fill="#2196F3" stroke="#1976D2" stroke-width="2"/>
  <path d="M50,20 C60,20 70,30 70,50 L70,65 C70,70 65,75 60,75 L40,75 C35,75 30,70 30,65 L30,50 C30,30 40,20 50,20 Z" fill="#F44336"/>
  <path d="M40,75 L35,85 L40,85 L40,75 Z M60,75 L65,85 L60,85 L60,75 Z" fill="#FF9800"/>
  <path d="M45,75 L45,85 L55,85 L55,75 Z" fill="#FFC107"/>
  <circle cx="50" cy="45" r="10" fill="#FFFFFF"/>
  <circle cx="50" cy="45" r="5" fill="#03A9F4"/>
</svg>
