<?xml version="1.0" encoding="UTF-8"?>
<svg xmlns="http://www.w3.org/2000/svg" viewBox="0 0 100 100">
  <circle cx="50" cy="50" r="48" fill="#F44336" stroke="#D32F2F" stroke-width="2"/>
  <path d="M40,30 L50,20 L60,30 L60,45 L50,55 L40,45 L40,30 Z" fill="#FFEB3B"/>
  <path d="M45,35 L50,30 L55,35 L55,42 L50,47 L45,42 L45,35 Z" fill="#F44336"/>
  <path d="M35,45 C35,35 40,30 50,30 C60,30 65,35 65,45 L65,65 C65,75 60,80 50,80 C40,80 35,75 35,65 L35,45 Z" fill="#0D47A1"/>
  <circle cx="40" cy="50" r="3" fill="#FFFFFF"/>
  <circle cx="60" cy="50" r="3" fill="#FFFFFF"/>
  <path d="M45,60 C45,60 50,65 55,60" fill="none" stroke="#FFFFFF" stroke-width="2"/>
</svg>
