<?xml version="1.0" encoding="UTF-8"?>
<svg xmlns="http://www.w3.org/2000/svg" viewBox="0 0 100 100">
  <circle cx="50" cy="50" r="48" fill="#E1BEE7" stroke="#9C27B0" stroke-width="2"/>
  <path d="M30,60 C35,70 45,75 55,70 C65,65 70,55 70,45 C70,35 65,30 60,30 L50,20 L45,30 C40,35 30,40 30,60 Z" fill="#FFFFFF"/>
  <path d="M50,20 L55,35 L65,25 Z" fill="#9C27B0"/>
  <path d="M40,45 C40,45 45,40 50,45 C55,50 60,45 60,45" fill="none" stroke="#9C27B0" stroke-width="2"/>
  <circle cx="40" cy="40" r="3" fill="#000000"/>
  <path d="M35,65 C35,65 45,75 65,65" fill="none" stroke="#FF4081" stroke-width="2"/>
  <path d="M70,45 L80,40 L75,50 L80,60 L70,55" fill="#E1BEE7"/>
</svg>
