<?xml version="1.0" encoding="UTF-8" standalone="no"?>
<svg xmlns="http://www.w3.org/2000/svg" width="200" height="200" viewBox="0 0 200 200">
  <!-- Half-eaten cake -->
  <path d="M40,100 L40,160 Q40,165 45,165 L100,165 L100,100 Z" fill="#f9c6c6" />
  <path d="M40,80 L40,100 L100,100 L100,80 Z" fill="#ffeaa7" />
  <path d="M40,60 L40,80 L100,80 L100,60 Z" fill="#f9c6c6" />
  
  <!-- Candle -->
  <rect x="70" y="30" width="5" height="30" fill="#ff9ff3" />
  
  <!-- Flame -->
  <ellipse cx="72.5" cy="25" rx="5" ry="10" fill="#feca57" />
  
  <!-- Decoration -->
  <circle cx="60" cy="70" r="5" fill="#ff6b6b" />
  
  <!-- Cute mouse with crumbs -->
  <ellipse cx="140" cy="120" rx="15" ry="12" fill="#c8d6e5" />
  <circle cx="148" cy="115" r="3" fill="black" />
  <ellipse cx="155" cy="120" rx="7" ry="4" fill="#ff9ff3" />
  
  <!-- Crumbs -->
  <circle cx="120" cy="130" r="2" fill="#ffeaa7" />
  <circle cx="130" cy="140" r="3" fill="#f9c6c6" />
  <circle cx="115" cy="145" r="2" fill="#ffeaa7" />
</svg>
