<?xml version="1.0" encoding="UTF-8" standalone="no"?>
<svg xmlns="http://www.w3.org/2000/svg" width="200" height="200" viewBox="0 0 200 200">
  <!-- Cake with three bites -->
  <path d="M40,100 L40,160 Q40,165 45,165 L155,165 Q160,165 160,160 L160,100 L120,100 L120,120 Q120,130 110,130 L90,130 Q80,130 80,120 L80,100 Z" fill="#f9c6c6" />
  <rect x="40" y="80" width="120" height="20" fill="#ffeaa7" rx="5" ry="5" />
  <rect x="40" y="60" width="120" height="20" fill="#f9c6c6" rx="5" ry="5" />
  
  <!-- Candles -->
  <rect x="70" y="30" width="5" height="30" fill="#ff9ff3" />
  <rect x="100" y="30" width="5" height="30" fill="#ff9ff3" />
  <rect x="130" y="30" width="5" height="30" fill="#ff9ff3" />
  
  <!-- Flames -->
  <ellipse cx="72.5" cy="25" rx="5" ry="10" fill="#feca57" />
  <ellipse cx="102.5" cy="25" rx="5" ry="10" fill="#feca57" />
  <ellipse cx="132.5" cy="25" rx="5" ry="10" fill="#feca57" />
  
  <!-- Decorations -->
  <circle cx="60" cy="70" r="5" fill="#ff6b6b" />
  <circle cx="90" cy="70" r="5" fill="#ff6b6b" />
  <circle cx="120" cy="70" r="5" fill="#ff6b6b" />
  
  <!-- Cute mouse -->
  <ellipse cx="100" cy="145" rx="15" ry="12" fill="#c8d6e5" />
  <circle cx="105" cy="140" r="3" fill="black" />
  <ellipse cx="110" cy="145" rx="7" ry="4" fill="#ff9ff3" />
</svg>
