<?xml version="1.0" encoding="UTF-8" standalone="no"?>
<svg xmlns="http://www.w3.org/2000/svg" width="200" height="200" viewBox="0 0 200 200">
  <!-- Tiny piece of cake left -->
  <path d="M40,100 L40,160 Q40,165 45,165 L55,165 L55,100 Z" fill="#f9c6c6" />
  <path d="M40,80 L40,100 L55,100 L55,80 Z" fill="#ffeaa7" />
  <path d="M40,60 L40,80 L55,80 L55,60 Z" fill="#f9c6c6" />
  
  <!-- Even bigger mouse with crumbs -->
  <ellipse cx="110" cy="130" rx="30" ry="25" fill="#c8d6e5" />
  <circle cx="120" cy="125" r="4" fill="black" />
  <ellipse cx="130" cy="130" rx="12" ry="7" fill="#ff9ff3" />
  
  <!-- Mouse ears -->
  <circle cx="90" cy="115" r="12" fill="#c8d6e5" />
  <circle cx="130" cy="115" r="12" fill="#c8d6e5" />
  
  <!-- Very happy mouse face -->
  <path d="M115,140 Q125,148 135,140" stroke="black" stroke-width="2" fill="none" />
  
  <!-- Mouse whiskers -->
  <line x1="130" y1="130" x2="150" y2="125" stroke="black" stroke-width="1" />
  <line x1="130" y1="130" x2="150" y2="130" stroke="black" stroke-width="1" />
  <line x1="130" y1="130" x2="150" y2="135" stroke="black" stroke-width="1" />
  
  <!-- Mouse paws -->
  <circle cx="95" cy="150" r="5" fill="#c8d6e5" />
  <circle cx="125" cy="150" r="5" fill="#c8d6e5" />
  
  <!-- Crumbs -->
  <circle cx="70" cy="140" r="3" fill="#ffeaa7" />
  <circle cx="80" cy="150" r="4" fill="#f9c6c6" />
  <circle cx="75" cy="160" r="3" fill="#ffeaa7" />
  <circle cx="65" cy="155" r="2" fill="#f9c6c6" />
</svg>
