<?xml version="1.0" encoding="UTF-8" standalone="no"?>
<svg xmlns="http://www.w3.org/2000/svg" width="200" height="200" viewBox="0 0 200 200">
  <!-- Almost completely eaten cake -->
  <path d="M40,100 L40,160 Q40,165 45,165 L65,165 L65,100 Z" fill="#f9c6c6" />
  <path d="M40,80 L40,100 L65,100 L65,80 Z" fill="#ffeaa7" />
  <path d="M40,60 L40,80 L65,80 L65,60 Z" fill="#f9c6c6" />
  
  <!-- Bigger mouse with crumbs -->
  <ellipse cx="120" cy="130" rx="25" ry="20" fill="#c8d6e5" />
  <circle cx="130" cy="125" r="4" fill="black" />
  <ellipse cx="140" cy="130" rx="10" ry="6" fill="#ff9ff3" />
  
  <!-- Mouse ears -->
  <circle cx="105" cy="115" r="10" fill="#c8d6e5" />
  <circle cx="135" cy="115" r="10" fill="#c8d6e5" />
  
  <!-- Happy mouse face -->
  <path d="M125,135 Q130,140 135,135" stroke="black" stroke-width="2" fill="none" />
  
  <!-- Mouse whiskers -->
  <line x1="140" y1="130" x2="160" y2="125" stroke="black" stroke-width="1" />
  <line x1="140" y1="130" x2="160" y2="130" stroke="black" stroke-width="1" />
  <line x1="140" y1="130" x2="160" y2="135" stroke="black" stroke-width="1" />
  
  <!-- Crumbs -->
  <circle cx="80" cy="140" r="3" fill="#ffeaa7" />
  <circle cx="90" cy="150" r="4" fill="#f9c6c6" />
  <circle cx="100" cy="145" r="3" fill="#ffeaa7" />
  <circle cx="85" cy="155" r="2" fill="#f9c6c6" />
  <circle cx="95" cy="160" r="3" fill="#ffeaa7" />
</svg>
