<?xml version="1.0" encoding="UTF-8" standalone="no"?>
<svg xmlns="http://www.w3.org/2000/svg" width="200" height="200" viewBox="0 0 200 200">
  <!-- Cake with one bite -->
  <rect x="40" y="100" width="120" height="60" fill="#f9c6c6" rx="5" ry="5" />
  <rect x="40" y="80" width="120" height="20" fill="#ffeaa7" rx="5" ry="5" />
  <rect x="40" y="60" width="120" height="20" fill="#f9c6c6" rx="5" ry="5" />
  
  <!-- Bite mark -->
  <circle cx="160" cy="90" r="15" fill="white" />
  
  <!-- Candles -->
  <rect x="70" y="30" width="5" height="30" fill="#ff9ff3" />
  <rect x="100" y="30" width="5" height="30" fill="#ff9ff3" />
  <rect x="130" y="30" width="5" height="30" fill="#ff9ff3" />
  
  <!-- Flames -->
  <ellipse cx="72.5" cy="25" rx="5" ry="10" fill="#feca57" />
  <ellipse cx="102.5" cy="25" rx="5" ry="10" fill="#feca57" />
  <ellipse cx="132.5" cy="25" rx="5" ry="10" fill="#feca57" />
  
  <!-- Decorations -->
  <circle cx="60" cy="70" r="5" fill="#ff6b6b" />
  <circle cx="90" cy="70" r="5" fill="#ff6b6b" />
  <circle cx="120" cy="70" r="5" fill="#ff6b6b" />
  
  <!-- Cute mouse -->
  <ellipse cx="175" cy="100" rx="10" ry="8" fill="#c8d6e5" />
  <circle cx="180" cy="97" r="2" fill="black" />
  <ellipse cx="185" cy="100" rx="5" ry="3" fill="#ff9ff3" />
</svg>
