<?xml version="1.0" encoding="UTF-8" standalone="no"?>
<svg xmlns="http://www.w3.org/2000/svg" width="200" height="200" viewBox="0 0 200 200">
  <!-- Mostly eaten cake -->
  <path d="M40,100 L40,160 Q40,165 45,165 L80,165 L80,100 Z" fill="#f9c6c6" />
  <path d="M40,80 L40,100 L80,100 L80,80 Z" fill="#ffeaa7" />
  <path d="M40,60 L40,80 L80,80 L80,60 Z" fill="#f9c6c6" />
  
  <!-- Cute mouse with crumbs -->
  <ellipse cx="120" cy="130" rx="20" ry="15" fill="#c8d6e5" />
  <circle cx="130" cy="125" r="3" fill="black" />
  <ellipse cx="140" cy="130" rx="8" ry="5" fill="#ff9ff3" />
  
  <!-- Mouse ears -->
  <circle cx="105" cy="120" r="8" fill="#c8d6e5" />
  <circle cx="135" cy="120" r="8" fill="#c8d6e5" />
  
  <!-- Mouse whiskers -->
  <line x1="140" y1="130" x2="155" y2="125" stroke="black" stroke-width="1" />
  <line x1="140" y1="130" x2="155" y2="130" stroke="black" stroke-width="1" />
  <line x1="140" y1="130" x2="155" y2="135" stroke="black" stroke-width="1" />
  
  <!-- Crumbs -->
  <circle cx="90" cy="140" r="3" fill="#ffeaa7" />
  <circle cx="100" cy="150" r="4" fill="#f9c6c6" />
  <circle cx="110" cy="145" r="3" fill="#ffeaa7" />
  <circle cx="95" cy="155" r="2" fill="#f9c6c6" />
</svg>
