<?xml version="1.0" encoding="UTF-8" standalone="no"?>
<svg xmlns="http://www.w3.org/2000/svg" width="200" height="200" viewBox="0 0 200 200">
  <!-- Almost no cake left -->
  <path d="M40,140 L40,160 Q40,165 45,165 L50,165 L50,140 Z" fill="#f9c6c6" />
  <path d="M40,130 L40,140 L50,140 L50,130 Z" fill="#ffeaa7" />
  
  <!-- Very full mouse -->
  <ellipse cx="100" cy="130" rx="35" ry="30" fill="#c8d6e5" />
  <circle cx="115" cy="125" r="5" fill="black" />
  <ellipse cx="125" cy="130" rx="15" ry="8" fill="#ff9ff3" />
  
  <!-- Mouse ears -->
  <circle cx="80" cy="110" r="15" fill="#c8d6e5" />
  <circle cx="120" cy="110" r="15" fill="#c8d6e5" />
  
  <!-- Very happy mouse face -->
  <path d="M105,140 Q115,150 125,140" stroke="black" stroke-width="3" fill="none" />
  
  <!-- Mouse whiskers -->
  <line x1="125" y1="130" x2="145" y2="125" stroke="black" stroke-width="2" />
  <line x1="125" y1="130" x2="145" y2="130" stroke="black" stroke-width="2" />
  <line x1="125" y1="130" x2="145" y2="135" stroke="black" stroke-width="2" />
  
  <!-- Mouse paws -->
  <circle cx="85" cy="155" r="8" fill="#c8d6e5" />
  <circle cx="115" cy="155" r="8" fill="#c8d6e5" />
  
  <!-- Mouse tail -->
  <path d="M135,140 Q150,150 160,130" stroke="#c8d6e5" stroke-width="5" fill="none" />
  
  <!-- Crumbs -->
  <circle cx="60" cy="150" r="3" fill="#ffeaa7" />
  <circle cx="70" cy="160" r="4" fill="#f9c6c6" />
  <circle cx="55" cy="155" r="2" fill="#ffeaa7" />
</svg>
