<?xml version="1.0" encoding="UTF-8"?>
<svg xmlns="http://www.w3.org/2000/svg" viewBox="0 0 100 100">
  <circle cx="50" cy="50" r="48" fill="#252525" stroke="#333333" stroke-width="2"/>
  <!-- Headphones -->
  <path d="M30,60 C25,60 25,50 25,50 C25,35 35,30 50,30 C65,30 75,35 75,50 C75,50 75,60 70,60" fill="none" stroke="#777777" stroke-width="2"/>
  <!-- Ear Cups -->
  <path d="M25,50 L25,65 C25,70 30,70 35,70 C40,70 45,70 45,65 L45,50" fill="none" stroke="#777777" stroke-width="2"/>
  <path d="M75,50 L75,65 C75,70 70,70 65,70 C60,70 55,70 55,65 L55,50" fill="none" stroke="#777777" stroke-width="2"/>
</svg>
