<?xml version="1.0" encoding="UTF-8"?>
<svg xmlns="http://www.w3.org/2000/svg" viewBox="0 0 100 100">
  <circle cx="50" cy="50" r="48" fill="#252525" stroke="#333333" stroke-width="2"/>
  <!-- Newspaper -->
  <path d="M30,30 L70,30 L70,70 L30,70 Z" fill="none" stroke="#777777" stroke-width="2"/>
  <path d="M30,40 L70,40 M30,50 L70,50 M30,60 L70,60" fill="none" stroke="#777777" stroke-width="1.5"/>
  <path d="M50,40 L50,70" fill="none" stroke="#777777" stroke-width="1.5"/>
  <!-- Headlines -->
  <path d="M35,35 L45,35 M55,35 L65,35" fill="none" stroke="#777777" stroke-width="1"/>
  <path d="M35,45 L45,45 M35,47 L45,47 M55,45 L65,45 M55,47 L65,47" fill="none" stroke="#777777" stroke-width="0.75"/>
  <path d="M35,55 L45,55 M35,57 L45,57 M55,55 L65,55 M55,57 L65,57" fill="none" stroke="#777777" stroke-width="0.75"/>
  <path d="M35,65 L45,65 M35,67 L45,67 M55,65 L65,65 M55,67 L65,67" fill="none" stroke="#777777" stroke-width="0.75"/>
</svg>
