<?xml version="1.0" encoding="UTF-8" standalone="no"?>
<svg xmlns="http://www.w3.org/2000/svg" width="200" height="200" viewBox="0 0 200 200">
  <!-- Older person -->
  <circle cx="100" cy="85" r="25" fill="#dfe6e9" />
  
  <!-- Face with more wrinkles -->
  <circle cx="90" cy="80" r="3" fill="black" />
  <circle cx="110" cy="80" r="3" fill="black" />
  <path d="M95,95 Q100,90 105,95" stroke="black" stroke-width="2" fill="none" />
  <path d="M85,75 Q87,70 90,75" stroke="black" stroke-width="1" fill="none" />
  <path d="M115,75 Q113,70 110,75" stroke="black" stroke-width="1" fill="none" />
  <path d="M80,85 Q85,83 90,85" stroke="black" stroke-width="1" fill="none" />
  <path d="M110,85 Q115,83 120,85" stroke="black" stroke-width="1" fill="none" />
  
  <!-- Nearly bald head -->
  <path d="M85,65 Q100,55 115,65" fill="#dfe6e9" />
  <path d="M90,65 Q100,60 110,65" fill="#dfe6e9" />
  
  <!-- Body with hunch -->
  <path d="M100,110 Q90,130 95,150" stroke="#dfe6e9" stroke-width="20" fill="none" />
  
  <!-- Arms -->
  <line x1="90" y1="120" x2="70" y2="135" stroke="#dfe6e9" stroke-width="8" stroke-linecap="round" />
  <line x1="110" y1="120" x2="120" y2="140" stroke="#dfe6e9" stroke-width="8" stroke-linecap="round" />
  
  <!-- Legs -->
  <line x1="90" y1="160" x2="85" y2="180" stroke="#dfe6e9" stroke-width="8" stroke-linecap="round" />
  <line x1="100" y1="160" x2="105" y2="180" stroke="#dfe6e9" stroke-width="8" stroke-linecap="round" />
  
  <!-- Glasses -->
  <circle cx="90" cy="80" r="8" fill="none" stroke="black" stroke-width="1" />
  <circle cx="110" cy="80" r="8" fill="none" stroke="black" stroke-width="1" />
  <line x1="98" y1="80" x2="102" y2="80" stroke="black" stroke-width="1" />
  
  <!-- Walking cane -->
  <line x1="70" y1="135" x2="65" y2="175" stroke="#a5b1c2" stroke-width="3" />
</svg>
