<?xml version="1.0" encoding="UTF-8" standalone="no"?>
<svg xmlns="http://www.w3.org/2000/svg" width="200" height="200" viewBox="0 0 200 200">
  <!-- Elderly person -->
  <circle cx="100" cy="85" r="20" fill="#dfe6e9" />
  
  <!-- Face with many wrinkles -->
  <circle cx="90" cy="80" r="2" fill="black" />
  <circle cx="110" cy="80" r="2" fill="black" />
  <path d="M95,90 Q100,85 105,90" stroke="black" stroke-width="1" fill="none" />
  <path d="M85,75 Q87,70 90,75" stroke="black" stroke-width="1" fill="none" />
  <path d="M115,75 Q113,70 110,75" stroke="black" stroke-width="1" fill="none" />
  <path d="M80,85 Q85,83 90,85" stroke="black" stroke-width="1" fill="none" />
  <path d="M110,85 Q115,83 120,85" stroke="black" stroke-width="1" fill="none" />
  <path d="M85,90 Q90,88 95,90" stroke="black" stroke-width="1" fill="none" />
  <path d="M105,90 Q110,88 115,90" stroke="black" stroke-width="1" fill="none" />
  
  <!-- Bald head with few hairs -->
  <path d="M95,65 L97,60" stroke="#a5b1c2" stroke-width="1" />
  <path d="M100,65 L102,58" stroke="#a5b1c2" stroke-width="1" />
  <path d="M105,65 L107,60" stroke="#a5b1c2" stroke-width="1" />
  
  <!-- Body with severe hunch -->
  <path d="M100,105 Q85,130 90,155" stroke="#dfe6e9" stroke-width="15" fill="none" />
  
  <!-- Arms -->
  <line x1="90" y1="115" x2="70" y2="135" stroke="#dfe6e9" stroke-width="6" stroke-linecap="round" />
  <line x1="110" y1="115" x2="115" y2="140" stroke="#dfe6e9" stroke-width="6" stroke-linecap="round" />
  
  <!-- Legs -->
  <line x1="85" y1="165" x2="80" y2="180" stroke="#dfe6e9" stroke-width="6" stroke-linecap="round" />
  <line x1="95" y1="165" x2="100" y2="180" stroke="#dfe6e9" stroke-width="6" stroke-linecap="round" />
  
  <!-- Glasses -->
  <circle cx="90" cy="80" r="8" fill="none" stroke="black" stroke-width="1" />
  <circle cx="110" cy="80" r="8" fill="none" stroke="black" stroke-width="1" />
  <line x1="98" y1="80" x2="102" y2="80" stroke="black" stroke-width="1" />
  
  <!-- Walking cane -->
  <line x1="70" y1="135" x2="65" y2="175" stroke="#a5b1c2" stroke-width="3" />
  
  <!-- Walker -->
  <path d="M65,175 L55,175 L55,155 M65,175 L75,175 L75,155" stroke="#a5b1c2" stroke-width="2" fill="none" />
  <line x1="55" y1="165" x2="75" y2="165" stroke="#a5b1c2" stroke-width="2" />
</svg>
