<?xml version="1.0" encoding="UTF-8" standalone="no"?>
<svg xmlns="http://www.w3.org/2000/svg" width="200" height="200" viewBox="0 0 200 200">
  <!-- Grave -->
  <path d="M70,100 L70,150 Q70,160 80,160 L120,160 Q130,160 130,150 L130,100 Q130,90 120,90 L80,90 Q70,90 70,100 Z" fill="#636e72" />
  
  <!-- Grave top -->
  <path d="M65,100 Q100,80 135,100" fill="#636e72" />
  
  <!-- RIP text -->
  <text x="85" y="130" font-family="Arial" font-size="20" fill="white">R.I.P.</text>
  
  <!-- Ground -->
  <rect x="50" y="160" width="100" height="10" fill="#2d3436" />
  
  <!-- Flowers -->
  <circle cx="60" cy="155" r="5" fill="#ff6b6b" />
  <circle cx="65" cy="150" r="5" fill="#ff6b6b" />
  <circle cx="55" cy="150" r="5" fill="#ff6b6b" />
  <line x1="60" y1="155" x2="60" y2="165" stroke="#4ecdc4" stroke-width="2" />
  
  <!-- Wilted flower -->
  <path d="M140,155 Q145,150 150,155" stroke="#ff6b6b" stroke-width="2" fill="none" />
  <path d="M140,155 Q135,150 130,155" stroke="#ff6b6b" stroke-width="2" fill="none" />
  <line x1="140" y1="155" x2="140" y2="165" stroke="#4ecdc4" stroke-width="2" />
  
  <!-- Crow -->
  <ellipse cx="120" cy="80" rx="15" ry="10" fill="black" />
  <path d="M130,75 L145,70" stroke="black" stroke-width="3" />
  <circle cx="125" cy="75" r="2" fill="white" />
</svg>
