<?xml version="1.0" encoding="UTF-8" standalone="no"?>
<svg xmlns="http://www.w3.org/2000/svg" width="200" height="200" viewBox="0 0 200 200">
  <!-- Teenager -->
  <circle cx="100" cy="85" r="20" fill="#ffeaa7" />
  
  <!-- Face -->
  <circle cx="90" cy="80" r="3" fill="black" />
  <circle cx="110" cy="80" r="3" fill="black" />
  <path d="M95,90 Q100,88 105,90" stroke="black" stroke-width="2" fill="none" />
  
  <!-- Teenager body -->
  <ellipse cx="100" cy="125" rx="10" ry="25" fill="#ffeaa7" />
  
  <!-- Teenager arms -->
  <line x1="90" y1="120" x2="75" y2="125" stroke="#ffeaa7" stroke-width="6" stroke-linecap="round" />
  <line x1="110" y1="120" x2="125" y2="125" stroke="#ffeaa7" stroke-width="6" stroke-linecap="round" />
  
  <!-- Teenager legs -->
  <line x1="95" y1="150" x2="90" y2="175" stroke="#ffeaa7" stroke-width="6" stroke-linecap="round" />
  <line x1="105" y1="150" x2="110" y2="175" stroke="#ffeaa7" stroke-width="6" stroke-linecap="round" />
  
  <!-- Teenager hair -->
  <path d="M80,75 Q100,60 120,75" fill="#a5b1c2" />
  
  <!-- Headphones -->
  <path d="M80,75 Q80,65 100,65 Q120,65 120,75" stroke="#636e72" stroke-width="3" fill="none" />
  <circle cx="80" cy="75" r="5" fill="#636e72" />
  <circle cx="120" cy="75" r="5" fill="#636e72" />
  
  <!-- Smartphone -->
  <rect x="125" y="125" width="8" height="15" fill="#dfe6e9" rx="1" ry="1" />
</svg>
