<?xml version="1.0" encoding="UTF-8" standalone="no"?>
<svg xmlns="http://www.w3.org/2000/svg" width="200" height="200" viewBox="0 0 200 200">
  <!-- Middle-aged person -->
  <circle cx="100" cy="90" r="25" fill="#dfe6e9" />
  
  <!-- Face with wrinkles -->
  <circle cx="90" cy="85" r="3" fill="black" />
  <circle cx="110" cy="85" r="3" fill="black" />
  <path d="M95,100 Q100,95 105,100" stroke="black" stroke-width="2" fill="none" />
  <path d="M85,80 Q87,75 90,80" stroke="black" stroke-width="1" fill="none" />
  <path d="M115,80 Q113,75 110,80" stroke="black" stroke-width="1" fill="none" />
  
  <!-- Balding head -->
  <path d="M80,70 Q100,50 120,70" fill="#a5b1c2" />
  <path d="M85,70 Q100,60 115,70" fill="#dfe6e9" />
  
  <!-- Body with slight hunch -->
  <path d="M100,115 Q95,130 100,145" stroke="#dfe6e9" stroke-width="20" fill="none" />
  
  <!-- Arms -->
  <line x1="90" y1="125" x2="75" y2="135" stroke="#dfe6e9" stroke-width="10" stroke-linecap="round" />
  <line x1="110" y1="125" x2="125" y2="135" stroke="#dfe6e9" stroke-width="10" stroke-linecap="round" />
  
  <!-- Legs -->
  <line x1="95" y1="155" x2="90" y2="175" stroke="#dfe6e9" stroke-width="10" stroke-linecap="round" />
  <line x1="105" y1="155" x2="110" y2="175" stroke="#dfe6e9" stroke-width="10" stroke-linecap="round" />
  
  <!-- Glasses -->
  <circle cx="90" cy="85" r="7" fill="none" stroke="black" stroke-width="1" />
  <circle cx="110" cy="85" r="7" fill="none" stroke="black" stroke-width="1" />
  <line x1="97" y1="85" x2="103" y2="85" stroke="black" stroke-width="1" />
  
  <!-- Tie -->
  <path d="M100,115 L95,130 L100,145 L105,130 Z" fill="#636e72" />
</svg>
